<svg width="24" height="23" viewBox="0 0 24 23" fill="none" xmlns="http://www.w3.org/2000/svg">
<path d="M11.9962 2.00535C14.9677 2.00535 15.3196 2.01647 16.4934 2.07C17.1992 2.07864 17.8983 2.20823 18.5602 2.45316C19.0403 2.63829 19.4762 2.9219 19.8401 3.28571C20.2039 3.64953 20.4875 4.0855 20.6726 4.56555C20.9175 5.22752 21.0471 5.92659 21.0558 6.63237C21.1088 7.80622 21.1204 8.15811 21.1204 11.1296C21.1204 14.101 21.1093 14.4529 21.0558 15.6267C21.0471 16.3325 20.9175 17.0316 20.6726 17.6936C20.4875 18.1736 20.2039 18.6096 19.8401 18.9734C19.4762 19.3372 19.0403 19.6208 18.5602 19.806C17.8983 20.0509 17.1992 20.1805 16.4934 20.1891C15.3201 20.2421 14.9682 20.2538 11.9962 20.2538C9.02424 20.2538 8.67235 20.2426 7.49903 20.1891C6.79325 20.1805 6.09418 20.0509 5.43221 19.806C4.95216 19.6208 4.51619 19.3372 4.15237 18.9734C3.78855 18.6096 3.50495 18.1736 3.31981 17.6936C3.07489 17.0316 2.94529 16.3325 2.93666 15.6267C2.88366 14.4529 2.872 14.101 2.872 11.1296C2.872 8.15811 2.88313 7.80622 2.93666 6.63237C2.94529 5.92659 3.07489 5.22752 3.31981 4.56555C3.50495 4.0855 3.78855 3.64953 4.15237 3.28571C4.51619 2.9219 4.95216 2.63829 5.43221 2.45316C6.09418 2.20823 6.79325 2.07864 7.49903 2.07C8.67288 2.017 9.02477 2.00535 11.9962 2.00535ZM11.9962 0C8.97548 0 8.59497 0.0127189 7.40788 0.0667741C6.48419 0.0851465 5.57031 0.260038 4.70511 0.584009C3.96291 0.863648 3.29066 1.30187 2.73527 1.86809C2.16854 2.42368 1.72995 3.09631 1.45014 3.83899C1.12617 4.70419 0.951274 5.61807 0.932902 6.54175C0.879906 7.72779 0.867188 8.10829 0.867188 11.129C0.867188 14.1498 0.879906 14.5303 0.933962 15.7174C0.952334 16.6411 1.12723 17.5549 1.4512 18.4201C1.7307 19.1627 2.16892 19.8353 2.73527 20.391C3.29097 20.9574 3.96359 21.3956 4.70617 21.6751C5.57137 21.9991 6.48525 22.174 7.40894 22.1923C8.59603 22.2453 8.97495 22.2591 11.9973 22.2591C15.0196 22.2591 15.3985 22.2464 16.5856 22.1923C17.5093 22.174 18.4232 21.9991 19.2884 21.6751C20.0274 21.3886 20.6986 20.9511 21.2589 20.3904C21.8192 19.8297 22.2563 19.1583 22.5423 18.4191C22.8663 17.5539 23.0412 16.64 23.0595 15.7163C23.1125 14.5303 23.1252 14.1498 23.1252 11.129C23.1252 8.10829 23.1125 7.72779 23.0585 6.54069C23.0401 5.61701 22.8652 4.70313 22.5412 3.83792C22.2617 3.09534 21.8235 2.42272 21.2572 1.86703C20.7015 1.30068 20.0288 0.862451 19.2863 0.582949C18.4211 0.258978 17.5072 0.0840867 16.5835 0.0657143C15.3975 0.0127189 15.017 0 11.9962 0Z" fill="white"/>
<path d="M12.0002 5.28516C10.8699 5.28516 9.76491 5.62034 8.82508 6.24831C7.88525 6.87629 7.15275 7.76885 6.72019 8.81313C6.28763 9.85742 6.17446 11.0065 6.39497 12.1151C6.61549 13.2237 7.15979 14.242 7.95905 15.0413C8.75831 15.8406 9.77663 16.3849 10.8852 16.6054C11.9938 16.8259 13.1429 16.7127 14.1872 16.2802C15.2315 15.8476 16.1241 15.1151 16.752 14.1753C17.38 13.2354 17.7152 12.1305 17.7152 11.0002C17.7152 9.48446 17.1131 8.03082 16.0413 6.95905C14.9695 5.88727 13.5159 5.28516 12.0002 5.28516ZM12.0002 14.7099C11.2665 14.7099 10.5492 14.4923 9.93919 14.0847C9.32914 13.677 8.85366 13.0977 8.57289 12.4198C8.29211 11.742 8.21865 10.9961 8.36178 10.2765C8.50492 9.55685 8.85824 8.89585 9.37704 8.37704C9.89585 7.85823 10.5569 7.50492 11.2765 7.36178C11.9961 7.21864 12.742 7.29211 13.4198 7.57288C14.0977 7.85366 14.677 8.32914 15.0847 8.93919C15.4923 9.54924 15.7099 10.2665 15.7099 11.0002C15.7099 11.984 15.319 12.9276 14.6233 13.6233C13.9276 14.319 12.984 14.7099 12.0002 14.7099Z" fill="white"/>
<path d="M17.937 6.39558C18.6746 6.39558 19.2725 5.79766 19.2725 5.06009C19.2725 4.32253 18.6746 3.72461 17.937 3.72461C17.1995 3.72461 16.6016 4.32253 16.6016 5.06009C16.6016 5.79766 17.1995 6.39558 17.937 6.39558Z" fill="white"/>
</svg>
